# AST/ASF file generated using VICON BodyLanguage
# -----------------------------------------------
:version 1.10
:name VICON
:units
  mass 1.0
  length 0.45
  angle deg
:documentation
   .ast/.asf automatically generated from VICON data using
   VICON BodyBuilder and BodyLanguage model FoxedUp or BRILLIANT.MOD
:root
   order TX TY TZ RX RY RZ
   axis XYZ
   position 0 0 0  
   orientation 0 0 0 
:bonedata
  begin
     id 1 
     name lhipjoint
     direction 0.646821 -0.743844 0.168282 
     length 2.62284 
     axis 0 0 0  XYZ
  end
  begin
     id 2 
     name lfemur
     direction 0.34202 -0.939693 0  
     length 7.79098  
     axis 0 0 20  XYZ
    dof rx ry rz
    limits (-160.0 20.0)
           (-70.0 70.0)
           (-60.0 70.0)
  end
  begin
     id 3 
     name ltibia
     direction 0.34202 -0.939693 0   
     length 8.1986   
     axis 0 0 20   XYZ
    dof rx
    limits (-10.0 170.0)
  end
  begin
     id 4 
     name lfoot
     direction 0.0766762 -0.210666 0.974546   
     length 1.95107   
     axis -90 7.62852e-016 20   XYZ
    dof rx rz
    limits (-45.0 90.0)
           (-70.0 20.0)
  end
  begin
     id 5 
     name ltoes
     direction 1.53582e-011 -4.21539e-011 1   
     length 0.983514   
     axis -90 7.62852e-016 20   XYZ
    dof rx
    limits (-90.0 20.0)
  end
  begin
     id 6 
     name rhipjoint
     direction -0.658967 -0.733632 0.165972   
     length 2.65935  
     axis 0 0 0  XYZ 
  end
  begin
     id 7 
     name rfemur
     direction -0.34202 -0.939693 0   
     length 7.69405   
     axis 0 0 -20   XYZ
    dof rx ry rz
    limits (-160.0 20.0)
           (-70.0 70.0)
           (-70.0 60.0)
  end
  begin
     id 8 
     name rtibia
     direction -0.34202 -0.939693 0   
     length 8.15138   
     axis 0 0 -20   XYZ
    dof rx
    limits (-10.0 170.0)
 end
 begin
     id 9 
     name rfoot
     direction -0.0806473 -0.221577 0.971802   
     length 2.09362  
     axis -90 -7.62852e-016 -20   XYZ
    dof rx rz
    limits (-45.0 90.0)
           (-20.0 70.0)
  end
  begin
     id 10 
     name rtoes
     direction -1.53524e-011 -4.2203e-011 1   
     length 1.05224   
     axis -90 -7.62852e-016 -20   XYZ
    dof rx
    limits (-90.0 20.0)
  end
  begin
     id 11 
     name lowerback
     direction -0.0484271 0.997202 0.0569433   
     length 1.86801   
     axis 0 0 0   XYZ
    dof rx ry rz
    limits (-20.0 45.0)
           (-30.0 30.0)
           (-30.0 30.0)
  end
  begin
     id 12 
     name upperback
     direction 0.0148864 0.998882 0.0448682   
     length 1.86634   
     axis 0 0 0   XYZ
    dof rx ry rz
    limits (-20.0 45.0)
           (-30.0 30.0)
           (-30.0 30.0)
  end
  begin
     id 13 
     name thorax
     direction 0.0368776 0.99918 0.0167067   
     length 1.87554   
     axis 0 0 0   XYZ
    dof rx ry rz
    limits (-20.0 45.0)
           (-30.0 30.0)
           (-30.0 30.0)
  end
  begin
     id 14 
     name lowerneck
     direction -0.0200531 0.999751 0.00976032   
     length 1.82429   
     axis 0 0 0   XYZ
    dof rx ry rz
    limits (-20.0 45.0)
           (-30.0 30.0)
           (-30.0 30.0)
  end
  begin
     id 15 
     name upperneck
     direction 0.0113135 0.99728 -0.0728357   
     length 1.79098   
     axis 0 0 0   XYZ
    dof rx ry rz
    limits (-20.0 45.0)
           (-30.0 30.0)
           (-30.0 30.0)
  end
  begin
     id 16
     name head
     direction 0.00559662 0.999607 -0.0274604  
     length 1.88003  
     axis 0 0 0   XYZ
    dof rx ry rz
    limits (-20.0 45.0)
           (-30.0 30.0)
           (-30.0 30.0)
  end
  begin
     id 17 
     name lclavicle
     direction 0.931914 0.362632 -0.00585704  
     length 3.94155  
     axis 0 0 0   XYZ
    dof ry rz
    limits (-20.0 10.0)
           (0.0 20.0)
  end
  begin
     id 18 
     name lhumerus
     direction 1 -4.48969e-011 2.13403e-027   
     length 5.77473   
     axis 180 -30 -90   XYZ
    dof rx ry rz
    limits (-60.0 90.0)
           (-90.0 90.0)
           (-90.0 90.0)
  end
  begin
     id 19
     name lradius
     direction 1 -4.48969e-011 5.41017e-027   
     length 3.53732   
     axis 180 -30 -90   XYZ
    dof rx
    limits (-10.0 170.0)
  end
  begin
     id 20
     name lwrist
     direction 1 -4.48986e-011 1.36145e-026   
     length 1.76866   
     axis -8.75986e-015 90 90   XYZ
    dof ry
    limits (-180.0 0.0)
 end
  begin
     id 21 
     name lhand
     direction 1 -4.48703e-011 2.72291e-026   
     length 0.556229   
     axis -1.73745e-014 90 90   XYZ
    dof rx rz
    limits (-90.0 90.0)
           (-45.0 45.0)
  end
  begin
     id 22 
     name lfingers
     direction 1 -4.49204e-011 5.44582e-026   
     length 0.448446   
     axis -3.4749e-014 90 90   XYZ
    dof rx
    limits (0.0 90.0)
  end
  begin
     id 23
     name lthumb
     direction 0.707107 -6.34773e-011 0.707107   
     length 0.643881   
     axis -90 45 2.85299e-015   XYZ
    dof rx rz
    limits (-45.0 45.0)
           (-45.0 45.0)
  end
  begin
     id 24 
     name rclavicle
     direction -0.951782 0.300043 0.0639076   
     length 3.96398  
     axis 0 0 0   XYZ 
    dof ry rz
    limits (-10.0 20.0)
           (-20.0 0.0)
  end
  begin
     id 25 
     name rhumerus
     direction -1 -4.48967e-011 6.14867e-028  
     length 5.79581   
     axis 180 30 90   XYZ
    dof rx ry rz
    limits (-90.0 60.0)
           (-90.0 90.0)
           (-90.0 90.0)
  end
  begin
     id 26 
     name rradius
     direction -1 -4.48966e-011 9.26908e-027   
     length 3.37412   
     axis 180 30 90   XYZ
    dof rx
    limits (-10.0 170.0)
  end
  begin
     id 27 
     name rwrist
     direction -1 -4.48999e-011 1.36145e-026   
     length 1.68706   
     axis -8.75986e-015 -90 -90   XYZ
    dof ry
    limits (-180.0 0.0)
  end
  begin
     id 28
     name rhand
     direction -1 -4.49032e-011 2.72291e-026   
     length 0.680496   
     axis -1.73745e-014 -90 -90   XYZ
    dof rx rz
    limits (-90.0 90.0)
           (-45.0 45.0)
  end
  begin
     id 29
     name rfingers
     direction -1 -4.48876e-011 5.44582e-026   
     length 0.548633   
     axis -3.4749e-014 -90 -90   XYZ
    dof rx
    limits (0.0 90.0)
  end
  begin
     id 30
     name rthumb
     direction -0.707107 -6.34964e-011 0.707107   
     length 0.787731   
     axis -90 -45 -2.85299e-015   XYZ
    dof rx rz
    limits (-45.0 45.0)
           (-45.0 45.0)
  end
:hierarchy
  begin
    root lhipjoint rhipjoint lowerback
    lhipjoint lfemur
    lfemur ltibia
    ltibia lfoot
    lfoot ltoes
    rhipjoint rfemur
    rfemur rtibia
    rtibia rfoot
    rfoot rtoes
    lowerback upperback
    upperback thorax
    thorax lowerneck lclavicle rclavicle
    lowerneck upperneck
    upperneck head
    lclavicle lhumerus
    lhumerus lradius
    lradius lwrist
    lwrist lhand lthumb
    lhand lfingers
    rclavicle rhumerus
    rhumerus rradius
    rradius rwrist
    rwrist rhand rthumb
    rhand rfingers
  end

#!OML:ASF H:\Terrain\Patient Classification 1\PaulMetrics\March1\PaulMetrics.ASF
:FULLY-SPECIFIED
:DEGREES
158
root 20.1025 18.3921 1.19364 9.5695 -15.565 5.8406
lowerback -4.98519 -1.84601 -6.88036
upperback -5.3807 -2.28417 0.913524
thorax -2.49511 -0.916837 4.73916
lowerneck -5.033 2.85593 -0.579214
upperneck 11.1861 4.06095 -1.48146
head 4.62916 1.89279 -0.172181
rclavicle -1.36913e-014 -1.51076e-014
rhumerus -57.1256 18.9341 -95.0499
rradius 40.5098
rwrist -9.42197
rhand -10.1266 -33.621
rfingers 7.12502
rthumb 15.8617 -62.9913
lclavicle -1.36913e-014 -1.51076e-014
lhumerus -39.0956 -23.8294 81.0327
lradius 77.3759
lwrist 14.5683
lhand -26.5254 -7.69708
lfingers 7.12502
lthumb 0.0382874 22.2827
rfemur -39.0865 1.7402 18.0402
rtibia 30.8944
rfoot -12.0781 -15.2629
rtoes -17.6578
lfemur -14.0993 -0.446319 -28.4738
ltibia 25.9406
lfoot -22.7112 2.09361
ltoes -14.7989
159
root 20.0386 18.3826 1.35263 9.74666 -15.599 5.76377
lowerback -5.40688 -1.83568 -6.65582
upperback -5.33673 -2.24446 0.884944
thorax -2.22532 -0.915641 4.57008
lowerneck -4.76846 2.78341 -0.627427
upperneck 10.8153 3.9499 -1.4229
head 4.43657 1.84511 -0.157413
rclavicle -1.23992e-014 4.77083e-015
rhumerus -57.164 18.8272 -95.1554
rradius 40.6341
rwrist -9.52278
rhand -10.2548 -33.7387
rfingers 7.12502
rthumb 15.7382 -63.1188
lclavicle -1.23992e-014 4.77083e-015
lhumerus -38.6206 -24.1896 80.6686
lradius 78.3292
lwrist 14.8674
lhand -25.6183 -6.39533
lfingers 7.12502
lthumb 0.914436 23.5825
rfemur -38.8492 2.35199 17.9139
rtibia 27.6811
rfoot -12.3584 -16.2533
rtoes -16.211
lfemur -13.3741 -0.499563 -28.3346
ltibia 25.3871
lfoot -22.8046 2.10818
ltoes -14.5649
160
root 19.9751 18.3745 1.51167 9.79783 -15.6221 5.71296
lowerback -5.66244 -1.82746 -6.43835
upperback -5.26092 -2.22005 0.851654
thorax -2.01306 -0.919811 4.4045
lowerneck -4.74275 2.66075 -0.535556
upperneck 10.603 3.78457 -1.53883
head 4.35849 1.7643 -0.223188
rclavicle -1.69961e-014 -7.95139e-015
rhumerus -57.1113 18.7237 -95.2824
rradius 40.7638
rwrist -9.49406
rhand -10.1329 -34.1895
rfingers 7.12502
rthumb 15.8557 -63.5603
lclavicle -1.69961e-014 -7.95139e-015
lhumerus -38.2542 -24.5006 80.4264
lradius 79.2992
lwrist 14.8699
lhand -26.0088 -4.8104
lfingers 7.12502
lthumb 0.537207 25.1687
rfemur -38.4095 3.16072 17.6582
rtibia 24.4176
rfoot -11.8532 -17.8144
rtoes -19.2469
lfemur -12.5159 -0.333262 -28.2165
ltibia 24.8909
lfoot -22.8822 2.16449
ltoes -16.0189
161
root 19.9153 18.3672 1.66381 9.84972 -15.4962 5.99477
lowerback -5.72168 -1.92538 -6.60052
upperback -5.30298 -2.34267 0.799155
thorax -2.00672 -0.976774 4.43396
lowerneck -5.08462 2.56453 -0.34987
upperneck 10.9484 3.66882 -1.71899
head 4.56151 1.69965 -0.315613
rclavicle 4.8578e-015 2.38542e-014
rhumerus -57.0087 18.6439 -95.4076
rradius 40.7473
rwrist -9.41726
rhand -10.1021 -33.9517
rfingers 7.12502
rthumb 15.8853 -63.3201
lclavicle 4.8578e-015 2.38542e-014
lhumerus -37.9115 -24.1828 80.1384
lradius 79.9517
lwrist 14.2071
lhand -25.8296 -4.99209
lfingers 7.12502
lthumb 0.710371 24.9865
rfemur -38.0238 4.24262 16.7043
rtibia 21.1157
rfoot -10.4429 -19.7402
rtoes -23.9128
lfemur -11.8371 -0.234955 -28.4252
ltibia 24.4623
lfoot -22.7734 2.27924
ltoes -18.7215
162
root 19.848 18.3571 1.80537 10.1501 -15.2683 6.00284
lowerback -5.79409 -2.12146 -6.63897
upperback -5.47048 -2.6031 0.876545
thorax -2.10516 -1.09789 4.52438
lowerneck -5.45066 2.53541 -0.122273
upperneck 11.3965 3.63462 -1.84306
head 4.80937 1.67842 -0.392636
rclavicle -7.51406e-014 4.77083e-015
rhumerus -57.1426 18.7831 -95.6521
rradius 40.8706
rwrist -9.50343
rhand -10.1101 -33.4125
rfingers 7.12502
rthumb 15.8776 -62.7815
lclavicle -7.51406e-014 4.77083e-015
lhumerus -37.7159 -23.6742 79.7526
lradius 80.4313
lwrist 13.5496
lhand -25.7345 -6.01547
lfingers 7.12502
lthumb 0.802194 23.9628
rfemur -37.8652 6.03939 15.5721
rtibia 18.0232
rfoot -9.76048 -22.3574
rtoes -25.2998
lfemur -11.3975 -0.393101 -28.2695
ltibia 23.904
lfoot -22.6473 2.29382
ltoes -20.1698
163
root 19.7727 18.3528 1.96043 10.2041 -15.2999 5.98599
lowerback -5.93101 -2.17497 -6.64888
upperback -5.45325 -2.66288 0.921505
thorax -2.00114 -1.13104 4.56826
lowerneck -5.6668 2.4965 -0.120126
upperneck 11.4693 3.57323 -1.73966
head 4.87758 1.65166 -0.358159
rclavicle 2.1096e-014 -1.59028e-014
rhumerus -57.2926 18.9353 -95.8781
rradius 41.1121
rwrist -9.74384
rhand -10.1716 -33.4033
rfingers 7.12502
rthumb 15.8184 -62.777
lclavicle 2.1096e-014 -1.59028e-014
lhumerus -37.4369 -23.6879 79.4858
lradius 80.8808
lwrist 13.2371
lhand -26.2283 -5.98959
lfingers 7.12502
lthumb 0.325276 23.9899
rfemur -37.4434 8.24673 14.3198
rtibia 15.1079
rfoot -12.0614 -25.2123
rtoes -18.9087
lfemur -10.6095 -0.373749 -28.0834
ltibia 23.3037
lfoot -22.7751 2.07192
ltoes -19.0562
164
root 19.6998 18.3529 2.13451 9.97631 -15.5277 6.5007
lowerback -6.22611 -2.11168 -6.99523
upperback -5.32979 -2.53916 0.748517
thorax -1.72056 -1.07483 4.57595
lowerneck -5.73328 2.37535 -0.224719
upperneck 11.4562 3.41166 -1.66287
head 4.88059 1.57151 -0.322315
rclavicle 5.43925e-014 -2.38542e-015
rhumerus -57.354 18.8589 -95.9621
rradius 41.2862
rwrist -9.69295
rhand -10.1839 -33.4447
rfingers 7.12502
rthumb 15.8065 -62.8194
lclavicle 5.43925e-014 -2.38542e-015
lhumerus -37.1392 -23.8515 79.387
lradius 81.4367
lwrist 12.8247
lhand -26.1368 -5.98007
lfingers 7.12502
lthumb 0.413653 23.9993
rfemur -36.7864 10.5988 12.3622
rtibia 12.1465
rfoot -14.9369 -28.082
rtoes -10.3869
lfemur -9.59553 -0.163281 -28.5337
ltibia 22.831
lfoot -22.9345 1.83815
ltoes -18.1969
165
root 19.6238 18.3419 2.30636 9.90821 -15.7309 6.7012
lowerback -6.5076 -2.08278 -7.15771
upperback -5.33159 -2.47156 0.753454
thorax -1.57045 -1.042 4.66699
lowerneck -5.60974 2.28501 -0.302251
upperneck 11.4679 3.30418 -1.73077
head 4.85844 1.51208 -0.339725
rclavicle 3.72721e-016 3.18055e-015
rhumerus -57.5737 18.9798 -96.0648
rradius 41.4357
rwrist -9.6101
rhand -10.1092 -33.1653
rfingers 7.12502
rthumb 15.8785 -62.5343
lclavicle 3.72721e-016 3.18055e-015
lhumerus -37.2025 -23.6029 79.4692
lradius 82.1078
lwrist 12.3883
lhand -25.9167 -6.5439
lfingers 7.12502
lthumb 0.626177 23.4349
rfemur -35.9405 10.2892 12.7426
rtibia 9.49623
rfoot -15.0482 -28.2095
rtoes -8.96515
lfemur -8.66594 0.0110196 -28.6368
ltibia 22.3213
lfoot -22.8176 1.59818
ltoes -17.5152
166
root 19.5514 18.3217 2.46907 10.0125 -15.7717 6.59135
lowerback -6.57677 -2.16961 -7.13973
upperback -5.4675 -2.58685 0.969442
thorax -1.65099 -1.09073 4.87609
lowerneck -5.48167 2.30305 -0.249634
upperneck 11.5484 3.35541 -2.00513
head 4.8702 1.52453 -0.440956
rclavicle 1.48095e-014 -3.97569e-015
rhumerus -57.9315 19.4619 -96.2868
rradius 41.5882
rwrist -9.80931
rhand -10.008 -33.2064
rfingers 7.12502
rthumb 15.976 -62.5676
lclavicle 1.48095e-014 -3.97569e-015
lhumerus -37.4127 -23.1302 79.6915
lradius 82.4926
lwrist 12.301
lhand -25.8336 -6.97124
lfingers 7.12502
lthumb 0.706465 23.0073
rfemur -35.3479 9.83729 13.3989
rtibia 7.28677
rfoot -15.6533 -28.298
rtoes -8.88166
lfemur -7.87386 0.0282047 -28.3724
ltibia 21.7992
lfoot -22.5308 1.195
ltoes -16.2569
167
root 19.483 18.3086 2.62543 10.1471 -15.6401 6.85176
lowerback -6.62199 -2.33848 -7.36451
upperback -5.63783 -2.80464 1.0467
thorax -1.76452 -1.18379 5.07209
lowerneck -5.42079 2.30951 -0.208771
upperneck 11.6198 3.38771 -2.23408
head 4.89116 1.52928 -0.525083
rclavicle 6.16481e-014 0
rhumerus -58.1499 19.8945 -96.5466
rradius 41.6268
rwrist -10.0384
rhand -9.99122 -33.4544
rfingers 7.12502
rthumb 15.9921 -62.8143
lclavicle 6.16481e-014 0
lhumerus -37.4149 -23.0905 79.8425
lradius 82.6391
lwrist 12.7919
lhand -26.0327 -7.19224
lfingers 7.12502
lthumb 0.514136 22.7869
rfemur -34.6996 9.05009 13.6055
rtibia 4.94525
rfoot -16.9873 -28.0966
rtoes -4.63514
lfemur -7.33393 -0.058948 -28.4785
ltibia 21.4901
lfoot -22.2424 0.762664
ltoes -16.2785
168
root 19.4035 18.2975 2.78385 10.2018 -15.5927 6.91469
lowerback -6.67616 -2.39682 -7.37673
upperback -5.68282 -2.87921 1.06232
thorax -1.77015 -1.21933 5.08949
lowerneck -5.38414 2.2633 -0.50868
upperneck 11.5639 3.3114 -1.88174
head 4.84693 1.49823 -0.356505
rclavicle 1.82136e-014 -1.19271e-014
rhumerus -58.1217 19.948 -96.7326
rradius 41.5774
rwrist -10.0641
rhand -10.1181 -33.3794
rfingers 7.12502
rthumb 15.8699 -62.749
lclavicle 1.82136e-014 -1.19271e-014
lhumerus -37.4058 -23.2469 79.822
lradius 83.0117
lwrist 13.147
lhand -26.3092 -7.24707
lfingers 7.12502
lthumb 0.247118 22.7325
rfemur -33.9872 8.36693 13.9588
rtibia 2.92285
rfoot -17.7609 -28.1307
rtoes -1.10736
lfemur -6.70108 0.0426605 -28.3486
ltibia 21.2794
lfoot -22.0819 0.34874
ltoes -16.8051
169
root 19.3239 18.2734 2.94868 10.1364 -15.7073 6.75935
lowerback -6.55404 -2.37407 -7.15688
upperback -5.73833 -2.87054 1.11238
thorax -1.90242 -1.21432 5.02492
lowerneck -5.24795 2.22886 -0.791284
upperneck 11.4974 3.24351 -1.49584
head 4.77912 1.47448 -0.180933
rclavicle 2.21893e-014 8.74653e-015
rhumerus -58.2146 19.8161 -96.8837
rradius 41.5756
rwrist -9.81806
rhand -10.2162 -33.2729
rfingers 7.12502
rthumb 15.7754 -62.6501
lclavicle 2.21893e-014 8.74653e-015
lhumerus -37.7675 -22.869 79.9081
lradius 83.591
lwrist 12.9472
lhand -26.3424 -7.24908
lfingers 7.12502
lthumb 0.215012 22.7306
rfemur -33.6318 8.01044 14.6712
rtibia 2.15499
rfoot -18.344 -28.3559
rtoes 0.430423
lfemur -5.85361 0.361503 -28.0295
ltibia 21.0795
lfoot -21.8214 0.24464
ltoes -17.9689
